<?xml version="1.0" standalone="no"?>
<!DOCTYPE svg PUBLIC "-//W3C//DTD SVG 20010904//EN"
 "http://www.w3.org/TR/2001/REC-SVG-20010904/DTD/svg10.dtd">
<svg version="1.0" xmlns="http://www.w3.org/2000/svg"
 width="512.000000pt" height="512.000000pt" viewBox="0 0 512.000000 512.000000"
 preserveAspectRatio="xMidYMid meet">
<metadata>
Created by potrace 1.11, written by Peter Selinger 2001-2013
</metadata>
<g transform="translate(0.000000,512.000000) scale(0.100000,-0.100000)"
fill="#000000" stroke="none">
<path d="M2510 5077 c-43 -40 -172 -155 -221 -198 -13 -11 -42 -37 -64 -57
-85 -77 -142 -129 -208 -186 l-67 -59 0 -142 0 -143 -77 -68 c-42 -38 -84 -76
-93 -84 -15 -14 -123 -110 -225 -200 -21 -19 -48 -44 -60 -55 -12 -11 -48 -43
-81 -72 l-60 -52 0 -141 1 -142 -90 -81 c-49 -45 -110 -100 -135 -122 -25 -22
-47 -42 -50 -45 -3 -3 -45 -41 -95 -85 -49 -43 -97 -86 -106 -95 -8 -8 -39
-35 -67 -60 l-52 -44 0 -386 0 -385 96 -85 c52 -47 110 -98 127 -113 18 -16
64 -57 102 -91 39 -35 95 -85 125 -112 31 -27 76 -67 100 -88 l43 -39 1 -143
1 -144 80 -71 c44 -40 114 -102 155 -140 41 -37 84 -76 96 -86 29 -25 157
-139 216 -192 l48 -43 0 -143 0 -142 33 -29 c40 -35 152 -134 296 -264 59 -52
145 -130 193 -173 l86 -77 39 32 c34 29 95 84 143 128 14 14 322 288 398 355
l32 28 0 142 0 142 78 70 c42 38 104 94 137 123 33 29 96 85 140 125 44 40
116 104 161 143 l80 70 0 142 -1 142 56 52 c49 45 161 145 223 199 12 10 37
33 56 50 19 18 73 66 119 107 47 41 98 87 113 101 l28 26 0 385 0 384 -27 24
c-35 30 -204 180 -219 195 -6 5 -44 39 -84 75 -183 161 -260 233 -261 244 -1
6 -2 70 -3 143 l-1 132 -41 38 c-22 21 -58 53 -80 72 -21 19 -77 68 -124 110
-46 42 -110 99 -140 126 -31 28 -91 81 -133 119 l-77 69 0 141 0 142 -67 59
c-37 33 -74 67 -83 75 -9 8 -52 46 -96 84 -43 39 -83 75 -89 80 -5 6 -30 29
-55 50 -25 22 -80 71 -123 110 -43 39 -84 74 -91 78 -6 3 -31 -12 -56 -35z"/>
</g>
</svg>
