<?xml version="1.0" encoding="utf-8"?>
<!-- Generator: Adobe Illustrator 19.2.1, SVG Export Plug-In . SVG Version: 6.00 Build 0)  -->
<svg version="1.1" id="Layer_1" xmlns="http://www.w3.org/2000/svg" xmlns:xlink="http://www.w3.org/1999/xlink" x="0px" y="0px"
	 viewBox="0 0 77.7 109.9" style="enable-background:new 0 0 77.7 109.9;" xml:space="preserve">
<style type="text/css">
	.st0{fill:#3597d3;}
	.st1{fill:#2880b8;}
</style>
<g>
	<g>
		<polygon class="st0" points="13.1,55.3 0,55.3 0,46.7 13.1,35 		"/>
		<polygon class="st0" points="26,55.3 12.8,55.3 12.8,29.2 26,17.5 		"/>
		<polygon class="st0" points="38.8,55.3 25.7,55.3 25.7,11.7 38.8,0 		"/>
		<polygon class="st1" points="64.5,55.3 77.7,55.3 77.7,46.7 64.5,35 		"/>
		<polygon class="st1" points="51.7,55.3 64.8,55.3 64.8,29.2 51.7,17.5 		"/>
		<polygon class="st1" points="38.8,55.3 52,55.3 52,11.7 38.8,0 		"/>
		<polygon class="st0" points="13.1,54.6 0,54.6 0,63.2 13.1,74.9 		"/>
		<polygon class="st0" points="26,54.6 12.8,54.6 12.8,80.7 26,92.4 		"/>
		<polygon class="st0" points="38.8,54.6 25.7,54.6 25.7,98.2 38.8,109.9 		"/>
		<polygon class="st1" points="64.5,54.6 77.7,54.6 77.7,63.2 64.5,74.9 		"/>
		<polygon class="st1" points="51.7,54.6 64.8,54.6 64.8,80.7 51.7,92.4 		"/>
		<polygon class="st1" points="38.8,54.6 52,54.6 52,98.2 38.8,109.9 		"/>
		<circle class="st0" cx="38.8" cy="55.3" r="20.5"/>
		<path class="st1" d="M38.8,75.8c-11.3,0-20.5-9.2-20.5-20.5s9.2-20.5,20.5-20.5"/>
		<polygon class="st0" points="38.8,80.5 25.7,80.5 25.7,51 38.8,39.3 		"/>
		<polygon class="st1" points="38.8,30 52,30 52,59.5 38.8,71.2 		"/>
	</g>
	<g>
		<polygon class="st0" points="13.1,55.3 0,55.3 0,46.7 13.1,35 		"/>
		<polygon class="st0" points="26,55.3 12.8,55.3 12.8,29.2 26,17.5 		"/>
		<polygon class="st0" points="38.8,55.3 25.7,55.3 25.7,11.7 38.8,0 		"/>
		<polygon class="st1" points="64.5,55.3 77.7,55.3 77.7,46.7 64.5,35 		"/>
		<polygon class="st1" points="51.7,55.3 64.8,55.3 64.8,29.2 51.7,17.5 		"/>
		<polygon class="st1" points="38.8,55.3 52,55.3 52,11.7 38.8,0 		"/>
		<polygon class="st0" points="13.1,54.6 0,54.6 0,63.2 13.1,74.9 		"/>
		<polygon class="st0" points="26,54.6 12.8,54.6 12.8,80.7 26,92.4 		"/>
		<polygon class="st0" points="38.8,54.6 25.7,54.6 25.7,98.2 38.8,109.9 		"/>
		<polygon class="st1" points="64.5,54.6 77.7,54.6 77.7,63.2 64.5,74.9 		"/>
		<polygon class="st1" points="51.7,54.6 64.8,54.6 64.8,80.7 51.7,92.4 		"/>
		<polygon class="st1" points="38.8,54.6 52,54.6 52,98.2 38.8,109.9 		"/>
		<circle class="st0" cx="38.8" cy="55.3" r="20.5"/>
		<path class="st1" d="M38.8,75.8c-11.3,0-20.5-9.2-20.5-20.5s9.2-20.5,20.5-20.5"/>
		<polygon class="st0" points="38.8,80.5 25.7,80.5 25.7,51 38.8,39.3 		"/>
		<polygon class="st1" points="38.8,30 52,30 52,59.5 38.8,71.2 		"/>
	</g>
</g>
</svg>
