<?xml version="1.0" encoding="utf-8"?>
<!-- Generator: Adobe Illustrator 19.2.1, SVG Export Plug-In . SVG Version: 6.00 Build 0)  -->
<svg version="1.1" id="Layer_1" xmlns="http://www.w3.org/2000/svg" xmlns:xlink="http://www.w3.org/1999/xlink" x="0px" y="0px"
	 viewBox="0 0 566.9 566.9" style="enable-background:new 0 0 566.9 566.9;" xml:space="preserve">
<style type="text/css">
	.st0{fill:#ebf0f0;}
</style>
<g>
	<path class="st0" d="M283.5,242.4c64.2,0,116.2-52,116.2-116.2c0-64.2-52-116.1-116.2-116.1c-64.2,0-116.2,52-116.2,116.2
		C167.3,190.5,219.3,242.4,283.5,242.4z"/>
	<path class="st0" d="M339.3,250.5c-1.4-0.1-25,22.6-41,38.2l-0.2-2.6l6.4-6.5v-26.9h-42v26.9l6.4,6.5l-0.2,2.6c-15.9-15.5-39.5-38.3-40.9-38.2
		c-79.1,3.4-142.4,68.8-142.4,148.7v120.6l0.3,1.9l8.3,2.6c78.3,24.4,146.3,32.6,202.3,32.6c109.3,0,172.7-31.1,176.6-33.2l7.7-3.9
		h0.8V399.2C481.6,319.3,418.3,253.9,339.3,250.5z M374.7,433.9H305v69.7h-43v-69.7h-69.7v-43H262v-69.7h43v69.7h69.7V433.9z"/>
</g>
</svg>
