<?xml version="1.0" encoding="utf-8"?>
<!-- Generator: Adobe Illustrator 19.2.1, SVG Export Plug-In . SVG Version: 6.00 Build 0)  -->
<svg version="1.1" id="Layer_1" xmlns="http://www.w3.org/2000/svg" xmlns:xlink="http://www.w3.org/1999/xlink" x="0px" y="0px"
	 viewBox="0 0 566.9 566.9" style="enable-background:new 0 0 566.9 566.9;" xml:space="preserve">
<style type="text/css">
	.st0{fill:#ebf0f0;}
</style>
<g>
	<path class="st0" d="M283.5,241.2c66.1,0,119.6-53.5,119.6-119.6c0-66-53.5-119.5-119.6-119.5c-66,0-119.6,53.5-119.6,119.6
		C163.9,187.7,217.5,241.2,283.5,241.2z"/>
	<path class="st0" d="M334.2,249.4H232.8c-84.4,0-153.1,68.7-153.1,153.1v124.1l0.3,1.9l8.5,2.7c80.5,25.1,150.6,33.5,208.2,33.5
		c112.5,0,177.7-32.1,181.8-34.1l7.9-4h0.9V402.5C487.4,318.1,418.6,249.4,334.2,249.4z M390.6,432.3h-81.9v81.9h-50.5v-81.9h-81.9
		v-50.5h81.9V300h50.5v81.9h81.9V432.3z"/>
</g>
</svg>
