<?xml version="1.0" encoding="utf-8"?>
<!-- Generator: Adobe Illustrator 19.2.1, SVG Export Plug-In . SVG Version: 6.00 Build 0)  -->
<svg version="1.1" id="Layer_1" xmlns="http://www.w3.org/2000/svg" xmlns:xlink="http://www.w3.org/1999/xlink" x="0px" y="0px"
	 viewBox="0 0 566.9 566.9" style="enable-background:new 0 0 566.9 566.9;" xml:space="preserve">
<style type="text/css">
	.st0{fill:#ebf0f0;}
</style>
<polygon class="st0" points="345.5,450.3 221.4,450.3 221.4,345.5 116.6,345.5 116.6,221.4 221.4,221.4 221.4,116.6 345.5,116.6 345.5,221.4
	450.3,221.4 450.3,345.5 345.5,345.5 "/>
<path class="st0" d="M0,0v566.9h566.9V0H0z M38.1,38.1h94.1v94.1H38.1V38.1z M132.2,528.8H38.1v-94.1h94.1V528.8z M528.8,528.8h-94.1v-94.1h94.1
	V528.8z M528.8,264.4h-68.5v38.1h68.5v94.1h-94.1v-41.1h-38.1v41.1h-41.1v38.1h41.1v94.1h-94.1v-68.5h-38.1v68.5h-94.1v-94.1h41.1
	v-38.1h-41.1v-41.1h-38.1v41.1H38.1v-94.1h68.5v-38.1H38.1v-94.1h94.1v41.1h38.1v-41.1h41.1v-38.1h-41.1V38.1h94.1v68.5h38.1V38.1
	h94.1v94.1h-41.1v38.1h41.1v41.1h38.1v-41.1h94.1V264.4z M528.8,132.2h-94.1V38.1h94.1V132.2z"/>
</svg>
