<?xml version="1.0" encoding="utf-8"?>
<!-- Generator: Adobe Illustrator 19.2.1, SVG Export Plug-In . SVG Version: 6.00 Build 0)  -->
<svg version="1.1" id="Layer_1" xmlns="http://www.w3.org/2000/svg" xmlns:xlink="http://www.w3.org/1999/xlink" x="0px" y="0px"
	 viewBox="0 0 566.9 566.9" style="enable-background:new 0 0 566.9 566.9;" xml:space="preserve">
<style type="text/css">
	.st0{fill:#ebf0f0;}
</style>
<g>
	<path class="st0" d="M283.5,241.5c65.7,0,118.8-53.2,118.8-118.8c0-65.6-53.2-118.8-118.8-118.8c-65.6,0-118.8,53.2-118.8,118.8
		C164.7,188.3,217.9,241.5,283.5,241.5z"/>
	<path class="st0" d="M340.6,249.8c-1.4-0.1-25.6,23.1-42,39.1l-0.2-2.7l6.6-6.7V252H262v27.5l6.6,6.7l-0.2,2.7c-16.3-15.9-40.4-39.1-41.8-39.1
		c-80.9,3.4-145.6,70.3-145.6,152v123.3l0.3,1.9l8.5,2.7c80,25,149.6,33.3,206.9,33.3c111.8,0,176.6-31.8,180.6-33.9l7.9-4h0.8
		V401.8C486,320.1,421.4,253.3,340.6,249.8z M409.2,371.5h-70v-26.3h70V371.5z"/>
</g>
</svg>
