<?xml version="1.0" encoding="utf-8"?>
<!-- Generator: Adobe Illustrator 19.2.1, SVG Export Plug-In . SVG Version: 6.00 Build 0)  -->
<svg version="1.1" id="Layer_1" xmlns="http://www.w3.org/2000/svg" xmlns:xlink="http://www.w3.org/1999/xlink" x="0px" y="0px"
	 viewBox="0 0 566.9 566.9" style="enable-background:new 0 0 566.9 566.9;" xml:space="preserve">
<style type="text/css">
	.st0{fill:#ebf0f0;}
</style>
<g>
	<polygon class="st0" points="294.2,173.9 294.2,226.6 356.8,226.6 	"/>
	<polygon class="st0" points="564.3,173.9 564.3,330.4 452.9,267.6 	"/>
	<polygon class="st0" points="555.9,330.4 449.3,271.2 429.9,287.9 427.8,286.2 427.8,330.4 	"/>
	<polygon class="st0" points="564.3,165.7 294.2,165.7 366.5,226.6 427.8,226.6 427.8,278.2 429.9,280 	"/>
</g>
<polygon class="st0" points="3.2,173.9 3.2,330.4 114.6,267.6 "/>
<polygon class="st0" points="273.3,173.9 210.7,226.6 273.3,226.6 "/>
<polygon class="st0" points="118.6,271.2 12.9,330.4 138.3,330.4 138.3,287.4 "/>
<polygon class="st0" points="201.7,226.6 273.3,165.7 3.2,165.7 138.3,279.5 138.3,226.6 "/>
<g>
	<polygon class="st0" points="148,244.5 148,401 259.4,338.2 	"/>
	<polygon class="st0" points="418.1,244.5 418.1,401 306.7,338.2 	"/>
	<polygon class="st0" points="409.6,401 157.6,401 263.4,341.8 283.6,358.5 303.1,341.8 	"/>
	<polygon class="st0" points="148,236.3 418.1,236.3 283.6,350.6 	"/>
</g>
</svg>
