<?xml version="1.0" encoding="utf-8"?>
<!-- Generator: Adobe Illustrator 19.2.1, SVG Export Plug-In . SVG Version: 6.00 Build 0)  -->
<svg version="1.1" id="Layer_1" xmlns="http://www.w3.org/2000/svg" xmlns:xlink="http://www.w3.org/1999/xlink" x="0px" y="0px"
	 viewBox="0 0 566.9 566.9" style="enable-background:new 0 0 566.9 566.9;" xml:space="preserve">
 <style type="text/css">
 	.st0{fill:#ebf0f0;}
 </style>
<path class="st0" d="M341,129.8c25.7,16.1,43.7,43.4,47,75.1c10.5,4.9,22.1,7.7,34.5,7.7c45,0,81.6-36.5,81.6-81.5c0-45.1-36.5-81.6-81.6-81.6
	C377.9,49.5,341.7,85.3,341,129.8L341,129.8z M287.5,296.8c45.1,0,81.6-36.5,81.6-81.6c0-45-36.5-81.5-81.6-81.5
	c-45,0-81.6,36.5-81.6,81.6C206,260.3,242.5,296.8,287.5,296.8L287.5,296.8z M322.1,302.3H253c-57.6,0-104.4,46.9-104.4,104.4v84.6
	l0.2,1.3l5.8,1.8c54.9,17.1,102.7,22.9,142,22.9c76.7,0,121.2-21.9,124-23.3l5.4-2.7h0.6v-84.6C426.6,349.2,379.7,302.3,322.1,302.3
	L322.1,302.3z M457.1,218.2h-68.6c-0.7,27.4-12.5,52.2-31,70c51.2,15.2,88.6,62.7,88.6,118.7V433c67.8-2.5,106.9-21.7,109.4-23
	l5.4-2.8h0.6v-84.6C561.5,265,514.6,218.2,457.1,218.2L457.1,218.2z M144.5,212.6c16,0,30.8-4.7,43.4-12.6c4-26.1,18-48.9,37.9-64.4
	c0.1-1.5,0.2-3,0.2-4.6c0-45-36.5-81.6-81.6-81.6c-45,0-81.6,36.5-81.6,81.6C62.9,176.1,99.4,212.6,144.5,212.6L144.5,212.6z
	 M217.7,288.2c-18.5-17.7-30.2-42.3-31-69.6c-2.5-0.2-5.1-0.4-7.7-0.4h-69.2C52.3,218.2,5.4,265,5.4,322.6v84.6l0.2,1.3l5.8,1.8
	c44.1,13.8,83.4,20.1,117.6,22.1v-25.5C129.1,350.8,166.5,303.4,217.7,288.2L217.7,288.2z"/>
</svg>
