<?xml version="1.0" encoding="utf-8"?>
<!-- Generator: Adobe Illustrator 19.2.1, SVG Export Plug-In . SVG Version: 6.00 Build 0)  -->
<svg version="1.1" id="Layer_1" xmlns="http://www.w3.org/2000/svg" xmlns:xlink="http://www.w3.org/1999/xlink" x="0px" y="0px"
	 viewBox="0 0 566.9 566.9" style="enable-background:new 0 0 566.9 566.9;" xml:space="preserve">
<style type="text/css">
	.st0{fill:#ebf0f0;}
</style>
<g>
	<polygon class="st0" points="156.1,258 4,130.1 4,454.2 234.7,324.1 222.6,314 156.1,314 	"/>
	<polygon class="st0" points="413.8,255.9 413.8,314 344.7,314 332.6,324.1 563.4,454.2 563.4,130.1 	"/>
	<polygon class="st0" points="254.6,412.5 254.6,341.1 243,331.5 24,454.2 545.8,454.2 325.1,331.6 315.3,340 315.3,412.5 	"/>
	<polygon class="st0" points="242.5,314 254.6,324.1 254.6,314 	"/>
	<polygon class="st0" points="254.6,154.8 315.3,154.8 315.3,253.3 398.4,253.3 563.4,113 4,113 170.4,253.3 254.6,253.3 	"/>
	<polygon class="st0" points="315.3,323.9 327,314 315.3,314 	"/>
</g>
</svg>
