<?xml version="1.0" encoding="utf-8"?>
<!-- Generator: Adobe Illustrator 19.2.1, SVG Export Plug-In . SVG Version: 6.00 Build 0)  -->
<svg version="1.1" id="Layer_1" xmlns="http://www.w3.org/2000/svg" xmlns:xlink="http://www.w3.org/1999/xlink" x="0px" y="0px"
	 viewBox="0 0 566.9 566.9" style="enable-background:new 0 0 566.9 566.9;" xml:space="preserve">
<style type="text/css">
.st0{fill:#ebf0f0;}
</style>
<path class="st0" d="M0,0v566.9h566.9V0H0z M132.2,528.8H38.1v-94.1h94.1V528.8z M132.2,396.6H38.1v-94.1h94.1V396.6z M132.2,264.4H38.1v-94.1
	h94.1V264.4z M132.2,132.2H38.1V38.1h94.1V132.2z M264.4,528.8h-94.1v-94.1h94.1V528.8z M264.4,396.6h-94.1v-94.1h94.1V396.6z
	 M264.4,264.4h-94.1v-94.1h94.1V264.4z M264.4,132.2h-94.1V38.1h94.1V132.2z M396.6,528.8h-94.1v-94.1h94.1V528.8z M396.6,396.6
	h-94.1v-94.1h94.1V396.6z M396.6,264.4h-94.1v-94.1h94.1V264.4z M396.6,132.2h-94.1V38.1h94.1V132.2z M528.8,528.8h-94.1v-94.1h94.1
	V528.8z M528.8,396.6h-94.1v-94.1h94.1V396.6z M528.8,264.4h-94.1v-94.1h94.1V264.4z M528.8,132.2h-94.1V38.1h94.1V132.2z"/>
</svg>
