<?xml version="1.0" encoding="utf-8"?>
<!-- Generator: Adobe Illustrator 19.2.1, SVG Export Plug-In . SVG Version: 6.00 Build 0)  -->
<svg version="1.1" id="Layer_1" xmlns="http://www.w3.org/2000/svg" xmlns:xlink="http://www.w3.org/1999/xlink" x="0px" y="0px"
	 viewBox="0 0 566.9 566.9" style="enable-background:new 0 0 566.9 566.9;" xml:space="preserve">
<style type="text/css">
	.st0{fill:#ebf0f0;}
</style>
<path class="st0" d="M283.2,242.1c65.8,0,119-53.2,119-119c0-65.7-53.2-118.9-119-118.9c-65.7,0-119,53.2-119,119
	C164.2,188.9,217.5,242.1,283.2,242.1L283.2,242.1z"/>
<path class="st0" d="M333.7,250.2h-101c-84,0-152.4,68.4-152.4,152.4v123.5l0.3,1.9l8.5,2.7c80.1,25,149.8,33.4,207.2,33.4
	c112,0,176.9-31.9,180.9-34l7.9-4h0.8V402.6C486.1,318.6,417.7,250.2,333.7,250.2L333.7,250.2z"/>
</svg>
